<svg width="128" height="128" viewBox="0 0 128 128" fill="none" xmlns="http://www.w3.org/2000/svg">
  <rect width="128" height="128" rx="28" fill="#F8FAFC"/>
  <rect x="24" y="30" width="80" height="68" rx="14" fill="#4285F4"/>
  <path d="M48 46C48 41.5817 51.5817 38 56 38H72C76.4183 38 80 41.5817 80 46V50H74V46C74 44.8954 73.1046 44 72 44H56C54.8954 44 54 44.8954 54 46V50H48V46Z" fill="#D2E3FC"/>
  <rect x="34" y="50" width="60" height="40" rx="10" fill="white"/>
  <path d="M60.5 78C69.0604 78 76 71.0604 76 62.5C76 53.9396 69.0604 47 60.5 47C51.9396 47 45 53.9396 45 62.5C45 71.0604 51.9396 78 60.5 78Z" fill="#34A853"/>
  <path d="M84 78L74.5 68.5" stroke="#EA4335" stroke-width="8" stroke-linecap="round"/>
  <path d="M61 54.5C63.2091 54.5 65 56.2909 65 58.5C65 60.7091 63.2091 62.5 61 62.5H56V69H52V54.5H61ZM60.6 58H56V59H60.6C60.8761 59 61.1 58.7761 61.1 58.5C61.1 58.2239 60.8761 58 60.6 58Z" fill="white"/>
</svg>
