<svg width="128" height="128" viewBox="0 0 128 128" fill="none" xmlns="http://www.w3.org/2000/svg">
  <rect width="128" height="128" rx="28" fill="#111827"/>
  <path d="M34 42C34 35.3726 39.3726 30 46 30H82C88.6274 30 94 35.3726 94 42V86C94 92.6274 88.6274 98 82 98H46C39.3726 98 34 92.6274 34 86V42Z" fill="url(#paint0_linear_174_2)"/>
  <path d="M53.7246 76.9756C55.4258 79.2969 58.0977 80.457 61.7402 80.457C64.9043 80.457 67.3662 79.75 69.126 78.3359C70.8857 76.9219 71.7656 75.0391 71.7656 72.6875C71.7656 71.0098 71.3496 69.627 70.5176 68.5391C69.6855 67.4512 68.541 66.5938 67.084 65.9668C65.6562 65.3105 63.5625 64.6973 60.8027 64.127L58.8906 63.7305C57.5215 63.4473 56.5264 63.1074 55.9053 62.7109C55.2842 62.2852 54.9736 61.7002 54.9736 60.9551C54.9736 60.2383 55.2568 59.666 55.8232 59.2383C56.3896 58.7812 57.209 58.5527 58.2812 58.5527C60.4609 58.5527 62.1641 59.4121 63.3906 61.1309L70.4043 56.0879C68.7871 53.9121 66.8926 52.3145 64.7207 51.2949C62.5781 50.2754 60.0352 49.7656 57.0918 49.7656C54.3027 49.7656 51.8398 50.2324 49.7031 51.166C47.5664 52.0996 45.9062 53.4297 44.7227 55.1562C43.5684 56.8535 42.9912 58.8359 42.9912 61.1035C42.9912 64.3809 43.9648 66.9258 45.9121 68.7383C47.8887 70.5215 51.0098 71.9238 55.2754 72.9453L57.3223 73.4414C58.8086 73.7832 59.875 74.1523 60.5215 74.5488C61.168 74.9453 61.4912 75.502 61.4912 76.2178C61.4912 77.7578 60.335 78.5273 58.0234 78.5273C55.5918 78.5273 53.5195 77.4023 51.8066 75.1523L44.3945 80.4258C46.1367 82.916 48.2734 84.7695 50.8047 85.9863C53.3359 87.1738 56.2871 87.7676 59.6582 87.7676C63.1445 87.7676 66.0352 87.2578 68.3301 86.2383C70.6543 85.1895 72.373 83.7461 73.4863 81.9082C74.5996 80.0703 75.1562 77.9551 75.1562 75.5625H66.584C66.5254 76.8047 66.085 77.7969 65.2617 78.5391C64.4688 79.252 63.3418 79.6094 61.8809 79.6094C60.2461 79.6094 58.8604 79.1543 57.7236 78.2441C56.5869 77.3047 55.5879 75.8828 54.7266 73.9785L53.7246 76.9756Z" fill="white"/>
  <defs>
    <linearGradient id="paint0_linear_174_2" x1="34" y1="30" x2="94" y2="98" gradientUnits="userSpaceOnUse">
      <stop stop-color="#F97316"/>
      <stop offset="1" stop-color="#EF4444"/>
    </linearGradient>
  </defs>
</svg>
